<svg width="18" height="20" viewBox="0 0 18 20" fill="none" xmlns="http://www.w3.org/2000/svg">
<path fill-rule="evenodd" clip-rule="evenodd" d="M17.25 14.5002L16.2417 13.4232V9.80245C16.2456 6.9762 14.5578 4.42199 11.9564 3.31727V2.90478C12.05 1.90038 11.567 0.92956 10.7094 0.398383C9.85184 -0.132794 8.76749 -0.132794 7.90992 0.398383C7.05235 0.92956 6.56933 1.90038 6.66288 2.90478V3.31727C4.0525 4.41493 2.35469 6.97068 2.35471 9.80245V13.4002L1.34641 14.4773C0.855968 15.0134 0.728406 15.7885 1.02119 16.4535C1.31398 17.1185 1.97186 17.5478 2.69844 17.548H6.15874C6.51493 18.9817 7.79807 19.9912 9.27529 20H9.32112C10.7917 19.9939 12.0726 18.9955 12.4377 17.5709H15.9209C16.6475 17.5707 17.3053 17.1414 17.5981 16.4764C17.8909 15.8114 17.7634 15.0363 17.2729 14.5002H17.25ZM8.01491 2.90483C7.9483 2.40969 8.1751 1.9209 8.59621 1.65206C9.01731 1.38323 9.55616 1.38323 9.97727 1.65206C10.3984 1.9209 10.6252 2.40969 10.5586 2.90483C9.71822 2.74498 8.85526 2.74498 8.01491 2.90483ZM9.32123 18.648H9.2754C8.56146 18.6476 7.91103 18.2377 7.60254 17.5939H10.9941C10.6791 18.2288 10.03 18.6289 9.32123 18.6251V18.648ZM16.3333 15.921C16.2665 16.0896 16.1022 16.1992 15.9209 16.196H2.6755C2.48796 16.2028 2.3152 16.0946 2.23945 15.9229C2.1637 15.7512 2.20027 15.5507 2.33176 15.4168L3.52339 14.1335C3.63913 14.0087 3.70445 13.8454 3.70672 13.6752V9.80244C3.70672 7.81299 4.76807 5.97466 6.49099 4.97993C8.21391 3.98521 10.3366 3.98521 12.0595 4.97993C13.7825 5.97466 14.8438 7.81299 14.8438 9.80244V13.6752C14.8461 13.8454 14.9114 14.0087 15.0271 14.1335L16.2188 15.4168C16.3634 15.5415 16.4099 15.746 16.3333 15.921Z" fill="black"/>
</svg>
